<?xml version="1.0" encoding="UTF-8"?>
<svg xmlns="http://www.w3.org/2000/svg" xmlns:xlink="http://www.w3.org/1999/xlink"
     viewBox="-280.00 -1382.00 2890.00 1933.00"
     width="200.00mm" height="133.77mm">
  <title>Nara — Primary Logo (Master)</title>
  <desc>Nara — primary wordmark lockup, sharing the Nurture brand system for cross-promotion. Typeface: Playfair Display, Medium 500, outlined to vector paths. Colours: Espresso Earth #3A2D28, Rose Gold #CBB1A5, Porcelain Ivory #FDFBF7. Recolour by editing the two fill="#..." values below (Wordmark, Full-Stop).</desc>
  <g id="nara-Logo-Master">
    <g id="Wordmark" fill="#3A2D28">
      <path d="M678 -708V-688Q644 -686 627.0 -676.0Q610 -666 604.5 -643.5Q599 -621 599 -580V4Q591 4 583.0 4.0Q575 4 566 4L142 -612V-132Q142 -90 148.0 -66.5Q154 -43 174.0 -33.0Q194 -23 235 -20V0Q216 -2 186.5 -2.5Q157 -3 131 -3Q106 -3 81.0 -2.5Q56 -2 40 0V-20Q73 -23 90.0 -32.5Q107 -42 113.0 -65.0Q119 -88 119 -128V-602Q119 -639 113.0 -656.5Q107 -674 90.0 -680.5Q73 -687 40 -688V-708Q56 -707 81.0 -706.0Q106 -705 131 -705Q153 -705 174.0 -706.0Q195 -707 211 -708L576 -186V-576Q576 -619 569.5 -642.0Q563 -665 543.0 -675.5Q523 -686 483 -688V-708Q501 -707 531.0 -706.0Q561 -705 587 -705Q612 -705 637.0 -706.0Q662 -707 678 -708Z M838.0 7Q796.0 7 766.0 -9.0Q736.0 -25 721.0 -53.0Q706.0 -81 706.0 -117Q706.0 -161 726.0 -188.5Q746.0 -216 777.5 -233.0Q809.0 -250 844.5 -261.5Q880.0 -273 911.5 -283.5Q943.0 -294 963.5 -308.0Q984.0 -322 984.0 -345V-413Q984.0 -449 972.5 -470.5Q961.0 -492 941.5 -501.0Q922.0 -510 895.0 -510Q872.0 -510 846.0 -503.5Q820.0 -497 805.0 -478Q827.0 -472 841.5 -454.5Q856.0 -437 856.0 -411Q856.0 -383 837.5 -367.0Q819.0 -351 791.0 -351Q760.0 -351 745.0 -370.5Q730.0 -390 730.0 -416Q730.0 -443 743.5 -460.0Q757.0 -477 779.0 -492Q803.0 -508 840.5 -519.0Q878.0 -530 924.0 -530Q967.0 -530 998.5 -520.5Q1030.0 -511 1051.0 -490Q1076.0 -467 1084.0 -432.5Q1092.0 -398 1092.0 -349V-73Q1092.0 -48 1098.5 -37.5Q1105.0 -27 1120.0 -27Q1130.0 -27 1139.5 -32.0Q1149.0 -37 1162.0 -47L1172.0 -30Q1151.0 -13 1129.5 -3.0Q1108.0 7 1075.0 7Q1043.0 7 1023.0 -3.0Q1003.0 -13 993.5 -32.0Q984.0 -51 984.0 -79Q958.0 -37 922.0 -15.0Q886.0 7 838.0 7ZM886.0 -41Q914.0 -41 938.5 -57.0Q963.0 -73 984.0 -105V-304Q973.0 -288 952.0 -276.5Q931.0 -265 907.0 -253.0Q883.0 -241 861.5 -225.5Q840.0 -210 826.0 -186.0Q812.0 -162 812.0 -125Q812.0 -86 832.0 -63.5Q852.0 -41 886.0 -41Z M1504.0 -530Q1533.0 -530 1553.5 -518.0Q1574.0 -506 1584.5 -487.5Q1595.0 -469 1595.0 -446Q1595.0 -417 1577.5 -396.5Q1560.0 -376 1531.0 -376Q1506.0 -376 1488.5 -391.0Q1471.0 -406 1471.0 -432Q1471.0 -454 1482.5 -469.5Q1494.0 -485 1509.0 -494Q1499.0 -502 1485.0 -501Q1458.0 -500 1435.0 -483.5Q1412.0 -467 1396.0 -441.5Q1380.0 -416 1371.0 -387.0Q1362.0 -358 1362.0 -333V-103Q1362.0 -54 1389.0 -37.5Q1416.0 -21 1464.0 -21V0Q1441.0 -1 1398.5 -2.5Q1356.0 -4 1309.0 -4Q1273.0 -4 1237.0 -2.5Q1201.0 -1 1182.0 0V-21Q1221.0 -21 1237.5 -36.0Q1254.0 -51 1254.0 -93V-407Q1254.0 -452 1239.0 -473.5Q1224.0 -495 1182.0 -495V-516Q1214.0 -513 1244.0 -513Q1278.0 -513 1307.5 -516.5Q1337.0 -520 1362.0 -527V-412Q1374.0 -441 1394.0 -468.0Q1414.0 -495 1442.0 -512.5Q1470.0 -530 1504.0 -530Z M1755.0 7Q1713.0 7 1683.0 -9.0Q1653.0 -25 1638.0 -53.0Q1623.0 -81 1623.0 -117Q1623.0 -161 1643.0 -188.5Q1663.0 -216 1694.5 -233.0Q1726.0 -250 1761.5 -261.5Q1797.0 -273 1828.5 -283.5Q1860.0 -294 1880.5 -308.0Q1901.0 -322 1901.0 -345V-413Q1901.0 -449 1889.5 -470.5Q1878.0 -492 1858.5 -501.0Q1839.0 -510 1812.0 -510Q1789.0 -510 1763.0 -503.5Q1737.0 -497 1722.0 -478Q1744.0 -472 1758.5 -454.5Q1773.0 -437 1773.0 -411Q1773.0 -383 1754.5 -367.0Q1736.0 -351 1708.0 -351Q1677.0 -351 1662.0 -370.5Q1647.0 -390 1647.0 -416Q1647.0 -443 1660.5 -460.0Q1674.0 -477 1696.0 -492Q1720.0 -508 1757.5 -519.0Q1795.0 -530 1841.0 -530Q1884.0 -530 1915.5 -520.5Q1947.0 -511 1968.0 -490Q1993.0 -467 2001.0 -432.5Q2009.0 -398 2009.0 -349V-73Q2009.0 -48 2015.5 -37.5Q2022.0 -27 2037.0 -27Q2047.0 -27 2056.5 -32.0Q2066.0 -37 2079.0 -47L2089.0 -30Q2068.0 -13 2046.5 -3.0Q2025.0 7 1992.0 7Q1960.0 7 1940.0 -3.0Q1920.0 -13 1910.5 -32.0Q1901.0 -51 1901.0 -79Q1875.0 -37 1839.0 -15.0Q1803.0 7 1755.0 7ZM1803.0 -41Q1831.0 -41 1855.5 -57.0Q1880.0 -73 1901.0 -105V-304Q1890.0 -288 1869.0 -276.5Q1848.0 -265 1824.0 -253.0Q1800.0 -241 1778.5 -225.5Q1757.0 -210 1743.0 -186.0Q1729.0 -162 1729.0 -125Q1729.0 -86 1749.0 -63.5Q1769.0 -41 1803.0 -41Z"/>
    </g>
    <g id="Full-Stop" fill="#CBB1A5">
      <path d="M2201.0 -123Q2231.0 -123 2251.5 -103.5Q2272.0 -84 2272.0 -54Q2272.0 -25 2251.5 -5.5Q2231.0 14 2201.0 14Q2171.0 14 2150.5 -5.5Q2130.0 -25 2130.0 -54Q2130.0 -84 2150.5 -103.5Q2171.0 -123 2201.0 -123Z"/>
    </g>
  </g>
</svg>
